<?xml version="1.0" encoding="UTF-8" standalone="no"?><svg width="24px" height="24px" viewBox="0 0 24 24" version="1.1" xmlns="http://www.w3.org/2000/svg" xmlns:xlink="http://www.w3.org/1999/xlink">        <title fill="black">feedly-android-md.colors-black</title>    <desc fill="black">Created with Sketch.</desc>    <defs fill="black"></defs>    <g id="Icons---20/24" stroke="none" stroke-width="1" fill="none" fill-rule="evenodd">        <g id="feedly-android-md.colors-" fill="gray">            <path d="M13.5508346,3.65234351 C12.6963003,2.78255216 11.2991821,2.78255216 10.4451234,3.65234351 L2.64018736,11.6000861 C1.78660421,12.4703617 1.78660421,13.8946693 2.64018736,14.763492 L8.20963907,20.4355389 C8.59767464,20.7793874 9.10411812,20.9886022 9.65906605,20.9886022 L14.3373674,20.9886022 C14.9470018,20.9886022 15.4990965,20.7358009 15.8975938,20.3299629 L21.3590993,14.768335 C22.2136336,13.8985436 22.2136336,12.4737518 21.3590993,11.604929 L13.5508346,3.65234351 L13.5508346,3.65234351 Z M13.3335156,18.169529 L12.5545913,18.9623177 C12.4975272,19.0209172 12.4185886,19.056755 12.3310904,19.056755 L11.664392,19.056755 C11.5854534,19.056755 11.5131723,19.0267288 11.4575348,18.9778151 L10.6633934,18.1685605 C10.5416568,18.0450656 10.5416568,17.841178 10.6633934,17.7171988 L11.776618,16.5834674 C11.8983547,16.4585197 12.0980788,16.4585197 12.2198155,16.5834674 L13.3335156,17.7176831 C13.4557278,17.8416623 13.4557278,18.0450656 13.3335156,18.169529 L13.3335156,18.169529 Z M13.3335156,13.4113442 L10.2192449,16.584436 C10.1617053,16.6425513 10.0832422,16.6774204 9.99621951,16.6774204 L9.32857007,16.6774204 C9.24963146,16.6774204 9.17687479,16.6483628 9.12123734,16.5994491 L8.32757145,15.7906788 C8.2058348,15.6662153 8.2058348,15.462812 8.32757145,15.3383485 L11.776618,11.8257669 C11.8983547,11.7017878 12.0980788,11.7017878 12.2198155,11.8257669 L13.3335156,12.9614355 C13.4557278,13.0849303 13.4557278,13.2873651 13.3335156,13.4113442 L13.3335156,13.4113442 Z M13.3335156,8.6546123 L7.88342289,14.2051015 C7.82635884,14.263701 7.74742023,14.2990544 7.66039755,14.2990544 L6.99322364,14.2990544 C6.91428503,14.2990544 6.84152837,14.2695125 6.78636645,14.2205989 L5.99174949,13.4108599 C5.87001284,13.2873651 5.87001284,13.0839617 5.99174949,12.9604669 L11.776618,7.06903499 C11.8983547,6.94457153 12.0976033,6.94457153 12.2198155,7.06903499 L13.3335156,8.20325065 C13.4557278,8.32722982 13.4557278,8.53111743 13.3335156,8.6546123 L13.3335156,8.6546123 Z" id="Imported-Layers" fill="gray"></path>        </g>    </g></svg>